<?xml version="1.0" encoding="UTF-8"?>
<svg id="Layer_1" data-name="Layer 1" xmlns="http://www.w3.org/2000/svg" viewBox="0 0 1590 570">
  <defs>
    <style>
      .cls-1 {
        fill: #ffe500;
        stroke-width: 0px;
      }
    </style>
  </defs>
  <path class="cls-1" d="m282.26,190.88c50.7,0,85.54,33.02,85.54,81.64v103.48h-75.92v-47.06h-19.24v47.06h-75.92v-103.48c0-48.62,34.84-81.64,85.54-81.64Zm15.86,77.22c0-9.36-6.76-16.12-15.86-16.12s-15.86,6.76-15.86,16.12,6.76,16.12,15.86,16.12,15.86-6.76,15.86-16.12Z"/>
  <path class="cls-1" d="m376.12,194h75.92v112.06h50.96v69.94h-126.88v-182Z"/>
  <path class="cls-1" d="m594.52,190.88c50.44,0,85.02,31.98,85.02,76.96,0,40.56-28.34,68.9-69.16,68.9-7.8,0-15.34-1.04-23.66-3.12v42.38h-75.92v-102.96c0-49.4,33.02-82.16,83.72-82.16Zm17.16,76.44c0-9.36-6.76-16.12-15.86-16.12s-15.86,6.76-15.86,16.12,6.76,16.12,15.86,16.12,15.86-6.76,15.86-16.12Z"/>
  <path class="cls-1" d="m763,190.88c50.7,0,85.54,33.02,85.54,81.64v103.48h-75.92v-47.06h-19.24v47.06h-75.92v-103.48c0-48.62,34.84-81.64,85.54-81.64Zm15.86,77.22c0-9.36-6.76-16.12-15.86-16.12s-15.86,6.76-15.86,16.12,6.76,16.12,15.86,16.12,15.86-6.76,15.86-16.12Z"/>
  <path class="cls-1" d="m848.02,285c0-54.34,40.04-94.12,94.9-94.12,44.72,0,78.52,27.04,88.14,70.46l-73.32,14.82c-3.12-6.24-8.58-9.88-14.82-9.88-9.1,0-15.86,6.76-15.86,16.12s6.76,16.12,15.86,16.12c7.54,0,13-5.2,15.08-11.7l72.28,22.62c-10.4,43.68-43.16,69.68-87.36,69.68-54.86,0-94.9-39.78-94.9-94.12Z"/>
  <path class="cls-1" d="m1115.55,190.88c50.7,0,85.54,33.02,85.54,81.64v103.48h-75.92v-47.06h-19.24v47.06h-75.92v-103.48c0-48.62,34.84-81.64,85.54-81.64Zm15.86,77.22c0-9.36-6.76-16.12-15.86-16.12s-15.86,6.76-15.86,16.12,6.76,16.12,15.86,16.12,15.86-6.76,15.86-16.12Z"/>
  <path class="cls-1" d="m1293.13,190.88c50.44,0,85.02,31.98,85.02,76.96,0,40.56-28.34,68.9-69.16,68.9-7.8,0-15.34-1.04-23.66-3.12v42.38h-75.92v-102.96c0-49.4,33.02-82.16,83.72-82.16Zm17.16,76.44c0-9.36-6.76-16.12-15.86-16.12s-15.86,6.76-15.86,16.12,6.76,16.12,15.86,16.12,15.86-6.76,15.86-16.12Z"/>
  <g>
    <path class="cls-1" d="m1370.2,197.51h-3.64v-6.32h14.98v6.32h-3.64v11.88h-7.7v-11.88Z"/>
    <path class="cls-1" d="m1389.78,190.88c2.26,0,3.8.83,5.07,2.73,1.2-1.87,2.78-2.73,5.12-2.73,4.45,0,7.31,3.07,7.31,7.83v10.69h-7.54v-10.56c0-.49-.34-.83-.81-.83s-.81.34-.81.83v10.56h-6.55v-10.56c0-.49-.34-.83-.81-.83s-.81.34-.81.83v10.56h-7.54v-10.69c0-4.76,2.89-7.83,7.36-7.83Z"/>
  </g>
</svg>