<?xml version="1.0" encoding="UTF-8"?>
<svg id="Layer_1" data-name="Layer 1" xmlns="http://www.w3.org/2000/svg" viewBox="0 0 1600 1600">
  <defs>
    <style>
      .cls-1 {
        fill: #ffe500;
      }

      .cls-1, .cls-2, .cls-3 {
        stroke-width: 0px;
      }

      .cls-2 {
        fill: #fff;
      }

      .cls-3 {
        fill: #ff4d00;
      }
    </style>
  </defs>
  <path class="cls-3" d="m1413.71,868.99c-4.42-25.24-16.46-46.35-34.83-61.05-18.04-14.43-41.49-22.06-67.81-22.06-33.49,0-64.23,12.28-86.57,34.57-3.5,3.5-6.76,7.2-9.76,11.1-2.56-4.95-5.65-9.59-9.28-13.9-17.23-20.48-45.2-31.77-78.78-31.77-22.98,0-43.57,5.17-60.84,14.74h-.05c5.6-3.22,10.9-6.99,15.84-11.31,18.34-16.04,30.48-38.45,35.1-64.8l19.67-111.55c.26-1.28.39-2.61.39-3.97,0-11.05-8.95-20-20-20h-75.4c-2.85,0-5.58.6-8.05,1.69-2.47-1.09-5.19-1.69-8.06-1.69h-65.52c-2.85,0-5.58.6-8.06,1.69-2.51-1.1-5.25-1.69-8.06-1.69h-75.4c-2.8,0-5.48.6-7.92,1.65-2.48-1.07-5.17-1.65-7.94-1.65h-134.16c-9.72,0-18.03,6.99-19.7,16.57l-3.34,19.14c-1.61-2.44-3.37-4.8-5.27-7.07-17.23-20.48-45.2-31.77-78.78-31.77-60.8,0-104.91,36.13-115.12,94.28l-18.72,107.4c-.08.48-.14.96-.19,1.44h-97.04c-1.39,0-2.75.16-4.07.43-1.34-.28-2.72-.43-4.12-.43h-134.16c-9.72,0-18.03,6.99-19.7,16.57l-31.72,182c-1.01,5.82.59,11.79,4.39,16.31,3.8,4.52,9.4,7.13,15.31,7.13h75.92c9.73,0,18.05-7.01,19.71-16.6l8.31-48.14h26.84c1.6,0,3.15-.21,4.65-.56,2.42,13.71,8.1,26.22,16.88,36.67,17.18,20.48,44.77,31.75,77.66,31.75,29.49,0,56.01-8.8,76.67-25.45.95-.76,1.86-1.55,2.78-2.34l-.22,1.24c-1.01,5.82.59,11.79,4.39,16.31,3.8,4.52,9.4,7.13,15.31,7.13h75.92c3.46,0,6.75-.89,9.62-2.46,2.91,1.6,6.22,2.46,9.62,2.46h75.92c3.3,0,6.43-.82,9.21-2.26,2.82,1.47,5.98,2.26,9.23,2.26h96.2c29.13,0,56.76-10.44,78.79-29.57l-1.07,6.14c-1.01,5.82.59,11.79,4.39,16.31,3.8,4.52,9.4,7.13,15.31,7.13h75.92c3.34,0,6.5-.84,9.29-2.31,2.84,1.5,6.04,2.31,9.32,2.31h75.92c3.46,0,6.75-.89,9.62-2.46,2.91,1.6,6.22,2.46,9.62,2.46h75.92c9.72,0,18.03-6.99,19.7-16.57l4.04-23.18c2.77,4.27,5.84,8.3,9.22,12.03,17.98,19.88,43.5,30.83,71.87,30.83,21.38,0,41.49-6.06,58.95-17.66l17.55,11.34c3.28,2.12,7.06,3.2,10.85,3.2,2.72,0,5.45-.55,8.02-1.68,6.15-2.69,10.54-8.29,11.69-14.9l15.78-90.77c.25-1.27.38-2.57.38-3.91,0-4.69-1.61-9-4.31-12.41,4.98-4.48,7.58-11.33,6.35-18.34Z"/>
  <g>
    <path class="cls-2" d="m612.12,605.88c52.78,0,83.72,31.46,75.66,77.74l-18.72,107.38h-75.92l18.72-107.12c1.3-7.28-1.82-11.7-7.8-11.7s-10.14,4.42-11.44,11.7l-18.72,107.12h-75.92l18.72-107.38c8.58-48.88,44.72-77.74,95.42-77.74Z"/>
    <path class="cls-2" d="m719.22,609h134.16l-9.36,53.56h-58.24l-2.86,16.12h43.68l-7.28,42.12h-43.68l-2.86,16.64h58.24l-9.36,53.56h-134.16l31.72-182Z"/>
    <path class="cls-2" d="m850.52,715.86l18.72-106.86h75.4l-18.46,105.56c-.78,4.94,2.34,8.32,7.02,8.32,5.2,0,8.32-3.9,9.1-8.32l18.46-105.56h65.52l-18.46,105.56c-.78,4.94,2.34,8.32,7.02,8.32,5.2,0,8.32-3.9,9.1-8.32l18.46-105.56h75.4l-19.76,112.06c-7.8,44.46-40.56,73.06-83.46,73.06-23.92,0-40.04-9.1-48.62-27.3-15.6,18.72-33.54,27.3-56.42,27.3-44.46,0-67.34-30.42-59.02-78.26Z"/>
    <path class="cls-1" d="m238.7,809h134.16l-9.36,54.34h-58.24l-3.12,17.68h43.68l-8.06,45.24h-43.68l-11.18,64.74h-75.92l31.72-182Z"/>
    <path class="cls-1" d="m362.33,916.38l18.72-107.38h75.92l-18.2,103.74c-1.3,7.28,2.08,11.7,8.06,11.7s9.88-4.42,11.18-11.7l18.2-103.74h75.92l-18.72,107.38c-8.32,47.58-45.76,77.74-96.46,77.74s-82.68-31.98-74.62-77.74Z"/>
    <path class="cls-1" d="m650.02,805.88c52.78,0,83.72,31.46,75.66,77.74l-18.72,107.38h-75.92l18.72-107.12c1.3-7.28-1.82-11.7-7.8-11.7s-10.14,4.42-11.44,11.7l-18.72,107.12h-75.92l18.72-107.38c8.58-48.88,44.72-77.74,95.42-77.74Z"/>
    <path class="cls-1" d="m757.11,809h88.4c45.76,0,77.48,32.24,77.48,79.3,0,56.42-45.76,102.7-101.4,102.7h-96.2l31.72-182Zm86.84,87.62c0-8.84-6.5-15.34-15.34-15.34-9.36,0-16.38,7.28-16.38,16.9,0,8.84,6.5,15.34,15.34,15.34,9.36,0,16.38-7.28,16.38-16.9Z"/>
    <path class="cls-1" d="m950.73,809h75.92l-31.72,182h-75.92l31.72-182Z"/>
    <path class="cls-1" d="m1127.68,805.88c52.78,0,83.72,31.46,75.66,77.74l-18.72,107.38h-75.92l18.72-107.12c1.3-7.28-1.82-11.7-7.8-11.7s-10.14,4.42-11.44,11.7l-18.72,107.12h-75.92l18.72-107.38c8.58-48.88,44.72-77.74,95.42-77.74Z"/>
    <path class="cls-1" d="m1210.68,907.8c0-59.28,43.42-101.92,101.4-101.92,44.2,0,75.66,24.96,82.94,66.56l-73.32,19.5c-2.6-6.5-7.54-10.66-14.82-10.66-9.36,0-16.38,7.02-16.38,16.64,0,9.1,6.5,15.6,15.08,15.6,8.06,0,14.56-5.72,16.38-13.78h70.72l-15.86,91.26-29.38-18.98c-16.12,14.3-35.88,22.1-57.98,22.1-47.06,0-78.78-35.88-78.78-86.32Z"/>
  </g>
</svg>