<?xml version="1.0" encoding="UTF-8"?>
<svg id="Layer_1" data-name="Layer 1" xmlns="http://www.w3.org/2000/svg" viewBox="0 0 1600 1600">
  <defs>
    <style>
      .cls-1 {
        fill: #fff;
      }

      .cls-1, .cls-2 {
        stroke-width: 0px;
      }

      .cls-2 {
        fill: #ff4d00;
      }
    </style>
  </defs>
  <path class="cls-1" d="m1458.15,796.67c-3.27-3.9-8.1-6.15-13.19-6.15h-115.6c-8.38,0-15.54,6.02-16.98,14.27l-1.42,8.14c-5.7-6.14-12.34-11.26-19.89-15.27-12.26-6.52-26.31-9.83-41.75-9.83-10.78,0-20.94,1.64-30.18,4.65l14.95-85.39h16.88c8.39,0,15.55-6.04,16.98-14.3l9.34-54.02c.21-1.09.33-2.21.33-3.36,0-9.52-7.71-17.23-17.23-17.23h-129.04c-8.39,0-15.55,6.04-16.98,14.3l-.17.96c-3.77-3.06-7.86-5.78-12.25-8.12-12.26-6.52-26.31-9.83-41.75-9.83-31.29,0-57.35,13.8-70.87,35.09-3.86-5.86-8.67-11.17-14.37-15.8-15.31-12.44-36.51-19.29-59.7-19.29s-44.79,6.84-61.45,19.78c-1.46,1.13-2.85,2.32-4.22,3.52l.07-.42c.87-5.01-.51-10.15-3.79-14.05-3.27-3.89-8.1-6.14-13.19-6.14h-65.41c-1.68,0-3.31.25-4.85.71-1.57-.46-3.2-.71-4.87-.71h-115.6c-8.38,0-15.54,6.02-16.98,14.27l-27.33,156.82c-.87,5.01.51,10.15,3.79,14.05,3.27,3.89,8.1,6.14,13.19,6.14h15.41c-7.72,6.28-14.34,13.81-19.69,22.48-2.69-6.05-6.16-11.64-10.39-16.68-14.83-17.69-38.04-27.44-65.35-27.44-2.15,0-4.27.08-6.38.19l4.23-24.61c13.08-5.47,24.18-13.51,33.06-23.99,10.98-12.94,18.28-29.28,21.72-48.56,0-.02,0-.03,0-.05l9.11-52c.22-1.1.33-2.23.33-3.4,0-9.52-7.71-17.23-17.23-17.23h-65.42c-2.99,0-5.82.77-8.29,2.12-2.51-1.38-5.36-2.12-8.29-2.12h-65.41c-8.37,0-15.53,6.01-16.97,14.26l-.96,5.47c-13.01-14.47-32.61-22.41-55.44-22.41-12.47,0-23.17,2.38-32.71,7.28-3.98,2.04-7.76,4.5-11.42,7.44-11.18-9.78-25.94-14.72-44.14-14.72-22.94,0-43.36,7.78-59.08,22.49-15.23,14.26-25.54,34.74-29.81,59.21l-16.13,92.06c-.65,3.7-.06,7.47,1.6,10.76-.74,1.48-1.29,3.07-1.59,4.77l-27.33,156.82c-.87,5.01.51,10.15,3.79,14.05,3.27,3.89,8.1,6.14,13.19,6.14h65.42c8.39,0,15.55-6.04,16.98-14.3l7.16-41.48h22.55l-6.21,35.59c-.87,5.01.51,10.16,3.79,14.05,3.27,3.9,8.1,6.14,13.19,6.14h66.53c2.54,0,4.98-.56,7.17-1.56,2.22,1.02,4.66,1.56,7.17,1.56h66.54c1.89,0,3.72-.32,5.44-.89,1.75.58,3.59.89,5.47.89h65.42c2.99,0,5.82-.77,8.29-2.12,2.51,1.38,5.36,2.12,8.29,2.12h65.42c2.43,0,4.74-.52,6.86-1.44,2.14.93,4.48,1.44,6.88,1.44h65.41c2.99,0,5.82-.77,8.29-2.12,2.51,1.38,5.36,2.12,8.29,2.12h65.41c8.38,0,15.54-6.02,16.98-14.27l3.53-20.22c15.99,23.18,42.85,37.19,75.74,37.19,24.45,0,46.2-7.83,63.57-22.32-.68,4.83.72,9.74,3.87,13.49,3.27,3.89,8.1,6.14,13.19,6.14h65.41c2.99,0,5.82-.77,8.29-2.12,2.51,1.38,5.36,2.12,8.29,2.12h65.41c3.37,0,6.53-.99,9.21-2.69,2.73,1.73,5.92,2.69,9.23,2.69h65.41c8.38,0,15.54-6.02,16.98-14.27l.47-2.69c3.77,3.35,7.84,6.29,12.21,8.79,12.61,7.21,27.83,10.87,45.24,10.87,21.62,0,41.73-5.65,57.44-16,.61,2.61,1.82,5.07,3.59,7.17,3.27,3.89,8.1,6.14,13.19,6.14h115.6c8.37,0,15.53-6.02,16.98-14.27l7.99-45.73c.22-1.1.33-2.23.33-3.39,0-6.79-3.93-12.66-9.63-15.47l5.5-31.8s.02-.08.02-.12c7.53-.84,13.72-6.55,15.05-14.16l8.07-46.15c.88-5.01-.51-10.16-3.78-14.05Zm-275.63,98.45c.29.33.58.67.87.99l-1.22,1,.35-1.99Z"/>
  <g>
    <path class="cls-2" d="m270.4,632.74c20.83,0,34.5,7.62,42.79,23.52,13.44-17.03,26.44-23.52,45.48-23.52,39.2,0,60.93,27.33,53.99,67.43l-16.13,92.07h-64.97l15.91-90.95c.67-4.26-1.79-7.17-6.05-7.17-4.03,0-7.17,2.91-7.84,7.17l-15.91,90.95h-56.45l15.91-90.95c.67-4.26-1.79-7.17-6.05-7.17-4.03,0-7.17,2.91-7.84,7.17l-15.91,90.95h-64.97l16.13-92.07c7.39-42.34,34.28-67.43,71.91-67.43Z"/>
    <path class="cls-2" d="m452.19,749.23c-23.97-9.63-34.72-30.92-29.35-61.38l9.19-52.42h65.41l-10.08,58.47c-1.12,6.27,1.79,10.3,6.72,10.3s8.74-4.03,9.86-10.3l10.08-58.47h65.41l-9.18,52.42c-5.83,32.71-24.2,54.21-53.09,62.73l-7.17,41.67h-65.42l7.62-43.01Z"/>
    <path class="cls-2" d="m641.94,635.43h115.6l-8.07,46.82h-50.18l-2.69,15.23h37.64l-6.94,38.98h-37.64l-9.63,55.78h-65.41l27.33-156.82Z"/>
    <path class="cls-2" d="m767.26,635.43h65.41l-27.33,156.82h-65.41l27.33-156.82Z"/>
    <path class="cls-2" d="m915.25,632.74c39.43,0,68.1,22.4,68.1,56.23,0,18.59-8.74,32.71-24.64,41.22,11.43,12.1,15.23,29.57,12.1,49.51l-2.02,12.54h-66.54l2.69-15.68c3.14-18.59,0-29.8-8.74-31.14l-8.29,46.82h-66.54l17.47-100.14c6.27-36.07,36.29-59.37,76.39-59.37Zm9.41,62.5c0-7.62-5.6-13.22-13.22-13.22-8.07,0-14.11,6.27-14.11,14.56,0,7.62,5.6,13.22,13.22,13.22,8.06,0,14.11-6.27,14.11-14.56Z"/>
    <path class="cls-2" d="m977.75,759.76l29.57-24.42c2.02,5.82,6.94,9.86,12.1,9.86s9.41-4.03,9.41-8.96c0-13.89-32.26-18.59-32.26-51.08,0-29.35,26.21-52.42,63.62-52.42,25.32,0,45.48,10.75,56.9,30.24l-25.54,21.28c-3.14-4.93-6.94-7.17-10.75-7.17-5.15,0-8.96,3.81-8.96,8.06,0,14.11,39.65,17.03,39.65,53.32,0,31.59-30.02,56.45-72.81,56.45-28.68,0-48.84-11.2-60.93-35.17Z"/>
    <path class="cls-2" d="m1153.3,689.86h-31.36l9.41-54.44h129.04l-9.41,54.44h-31.36l-17.92,102.38h-66.31l17.92-102.38Z"/>
    <path class="cls-2" d="m182.37,807.76h115.6l-8.07,46.82h-50.18l-2.69,15.23h37.64l-6.94,38.98h-37.64l-9.63,55.78h-65.42l27.33-156.82Z"/>
    <path class="cls-2" d="m371.79,805.07c39.43,0,68.1,22.4,68.1,56.23,0,18.59-8.74,32.71-24.64,41.22,11.43,12.1,15.23,29.57,12.1,49.51l-2.02,12.54h-66.54l2.69-15.68c3.14-18.59,0-29.8-8.74-31.14l-8.29,46.82h-66.53l17.47-100.14c6.27-36.07,36.29-59.37,76.39-59.37Zm9.41,62.5c0-7.62-5.6-13.22-13.22-13.22-8.07,0-14.11,6.27-14.11,14.56,0,7.62,5.6,13.22,13.22,13.22,8.06,0,14.11-6.27,14.11-14.56Z"/>
    <path class="cls-2" d="m534.58,805.07c44.8,0,71.91,30.24,63.85,75.72l-14.79,83.78h-65.42l6.94-40.55h-16.35l-7.17,40.55h-65.42l16.35-94.31c6.72-38.98,40.1-65.19,81.99-65.19Zm4.93,65.86c0-7.62-5.6-13.22-13.22-13.22-8.07,0-14.11,6.27-14.11,14.56,0,7.62,5.6,13.22,13.22,13.22,8.06,0,14.11-6.27,14.11-14.56Z"/>
    <path class="cls-2" d="m695.73,805.07c45.48,0,72.14,27.11,65.19,66.98l-16.13,92.52h-65.41l16.13-92.3c1.12-6.27-1.57-10.08-6.72-10.08s-8.74,3.81-9.86,10.08l-16.13,92.3h-65.41l16.13-92.52c7.39-42.12,38.53-66.98,82.22-66.98Z"/>
    <path class="cls-2" d="m766.43,892.44c0-50.18,37.64-87.37,88.49-87.37,42.56,0,70.57,25.99,72.36,66.53l-64.97,7.84c-1.57-5.6-6.05-9.86-12.55-9.86-8.51,0-14.56,6.27-14.56,14.79,0,7.62,5.82,12.99,13.22,12.99,5.38,0,10.75-3.36,13.22-8.74l57.8,24.19c-14.79,35.17-43.01,54.44-78.41,54.44-43.46,0-74.6-29.12-74.6-74.82Z"/>
    <path class="cls-2" d="m1014.63,902.07h-16.58l-10.98,62.5h-65.41l27.33-156.82h65.41l-9.19,52.65h16.58l9.18-52.65h65.42l-27.33,156.82h-65.41l10.98-62.5Z"/>
    <path class="cls-2" d="m1114.84,807.76h65.41l-27.33,156.82h-65.41l27.33-156.82Z"/>
    <path class="cls-2" d="m1166.88,932.09l29.57-24.42c2.02,5.82,6.94,9.86,12.1,9.86s9.41-4.03,9.41-8.96c0-13.89-32.26-18.59-32.26-51.08,0-29.35,26.21-52.42,63.62-52.42,25.32,0,45.48,10.75,56.9,30.24l-25.54,21.28c-3.14-4.93-6.94-7.17-10.75-7.17-5.15,0-8.96,3.81-8.96,8.06,0,14.11,39.65,17.03,39.65,53.32,0,31.59-30.02,56.45-72.81,56.45-28.68,0-48.84-11.2-60.93-35.17Z"/>
    <path class="cls-2" d="m1329.36,807.76h115.6l-8.07,46.15h-50.18l-2.46,13.89h37.64l-6.27,36.29h-37.64l-2.46,14.34h50.18l-8.06,46.15h-115.6l27.33-156.82Z"/>
  </g>
</svg>