<?xml version="1.0" encoding="UTF-8"?>
<svg id="Layer_1" data-name="Layer 1" xmlns="http://www.w3.org/2000/svg" viewBox="0 0 1600 1600">
  <defs>
    <style>
      .cls-1 {
        fill: #ddff0a;
      }

      .cls-1, .cls-2, .cls-3, .cls-4 {
        stroke-width: 0px;
      }

      .cls-2 {
        fill: #ffe500;
      }

      .cls-3 {
        fill: #fff;
      }

      .cls-4 {
        fill: #ff4d00;
      }
    </style>
  </defs>
  <path class="cls-4" d="m1357.06,764.69c-15.12-23.19-38.22-34.95-68.64-34.95-21.36,0-40.04,5.72-54.02,16.54-3.78,2.93-7.13,6.17-10.03,9.68-14.94-17.41-35.77-26.22-62.1-26.22-17.63,0-33.43,3.91-46.27,11.35l30.99-177.82c.91-5.24-.54-10.61-3.96-14.67-3.42-4.07-8.46-6.42-13.78-6.42h-65c-3.19,0-6.21.85-8.84,2.33-2.66-1.5-5.69-2.33-8.81-2.33h-65c-8.75,0-16.23,6.29-17.73,14.91l-9.93,56.97c-1.1-1.56-2.25-3.09-3.48-4.57-14.51-17.25-37.05-26.75-63.47-26.75-15.98,0-31.85,3.65-45.9,10.56-12.1,5.95-22.94,14.36-31.7,24.53-2.08-4.02-4.57-7.81-7.5-11.31-13.04-15.55-32.86-23.77-57.33-23.77-14.5,0-27.46,3.05-38.53,9.08-3.79,2.06-7.39,4.49-10.8,7.27-9.61-9.07-24.46-16.35-47.39-16.35s-43.53,7.33-58.99,21.21c-3.08,2.76-5.94,5.79-8.6,9.05-15.1-20.08-37.05-30.26-65.35-30.26-21.36,0-40.04,5.72-54.02,16.54-15,11.61-23.26,28.2-23.26,46.7,0,16,5.97,27.22,12.83,35.34l-23.28,18.76c-6.75,5.44-8.66,14.92-4.55,22.55,2.12,3.93,4.52,7.59,7.18,10.99-7.46,1.19-13.53,6.97-14.89,14.61l-1.83,10.29c-1.05-1.36-2.12-2.7-3.26-3.99-13.22-14.95-31.38-23.62-51.5-24.69l3.37-19.63c.9-5.23-.56-10.59-3.98-14.65-3.42-4.06-8.46-6.4-13.76-6.4h-66.3c-8.72,0-16.19,6.25-17.72,14.84l-18.2,101.92c-5.05,28.16,1.1,54.35,17.33,73.75,16.52,19.74,41.86,30.61,71.37,30.61,27.28,0,52.42-9.36,70.79-26.37,3.11-2.88,5.99-5.95,8.64-9.19,1.78,3.01,3.79,5.89,6.06,8.59,8.79,10.5,20.84,18.2,35.22,22.73-17.24,17.51-26.7,40.8-26.7,65.89s9.41,46.66,26.49,62.2c16.41,14.92,39.25,23.14,64.31,23.14,27.37,0,52.59-9.74,71.03-27.44,1.82-1.75,3.56-3.57,5.22-5.44,1.85,3.27,3.99,6.36,6.43,9.27,13.25,15.78,33.62,24.13,58.89,24.13,19.4,0,34.87-5.16,47.97-16.33,11.86,10.58,28.79,16.33,49.27,16.33s38.97-5.99,53.33-17.35c.65,2.64,1.88,5.13,3.67,7.27,3.42,4.08,8.47,6.44,13.8,6.44h65c3.19,0,6.21-.84,8.84-2.32,2.67,1.5,5.71,2.32,8.84,2.32h65c8.73,0,16.21-6.27,17.73-14.87l1.94-10.99c1.79,2.13,3.69,4.18,5.71,6.12,15.42,14.74,37.13,22.86,61.12,22.86s46.31-7.59,63.87-20.92c.05,4.13,1.49,8.16,4.19,11.38,3.42,4.07,8.47,6.42,13.78,6.42h65c8.74,0,16.22-6.28,17.73-14.88l10.79-61.35c4.76,1.41,9.85,2.14,15.17,2.14,30.72,0,53.88-23.95,53.88-55.7,0-6.38-1.16-12.39-3.28-17.85,10.84-2.98,20.59-7.7,28.87-14.06,16.27-12.5,25.23-30.2,25.23-49.83s-8.83-32.06-18.13-40.35l17.11-13.72c7.22-5.79,8.87-16.12,3.81-23.87Zm-262.78-4.51h.79c-.12.17-.24.34-.36.52-.14-.18-.29-.34-.43-.52Z"/>
  <g>
    <path class="cls-1" d="m438.48,714.1l26.78-21.58c1.56,4.94,5.98,8.84,11.18,8.84s8.84-3.38,8.84-8.06c0-12.74-29.64-17.68-29.64-47.32,0-26.26,23.66-45.24,59.28-45.24,24.44,0,41.86,8.84,53.56,26.78l-23.66,18.98c-2.34-4.42-5.98-6.76-9.88-6.76-4.68,0-8.32,3.38-8.32,7.54,0,13.52,36.14,15.08,36.14,48.36,0,28.6-26.78,49.66-65.26,49.66-27.82,0-48.1-10.92-59.02-31.2Z"/>
    <path class="cls-1" d="m744.57,600.74c-23.14,0-39.52,9.1-51.48,27.82-5.98-17.94-21.06-27.82-45.24-27.82-37.96,0-63.7,23.14-70.72,63.44l-13.78,78h65l13.52-77.48c.78-4.94,4.16-8.06,8.32-8.06,4.42,0,7.02,3.38,6.24,8.06l-13.52,77.48h61.36l13.52-77.48c.78-4.94,4.16-8.06,8.32-8.06,4.42,0,7.02,3.38,6.24,8.06l-9.45,54.14c7.12-7.69,17.29-12.5,28.57-12.5,15.26,0,28.49,8.82,34.87,21.63l11.27-63.79c6.76-38.22-14.3-63.44-53.04-63.44Z"/>
    <path class="cls-1" d="m798.86,701.1c0-30.42,30.68-52,61.1-47.58l-40.3-19.76c15.6-20.8,40.3-33.02,67.34-33.02,42.38,0,67.86,28.86,60.84,69.16l-12.74,72.28h-87.36c-29.12,0-48.88-16.38-48.88-41.08Zm93.08-20.8c0-7.02-5.72-12.48-12.74-12.48-7.54,0-13.26,5.98-13.26,13.78,0,7.02,5.46,12.74,12.48,12.74,7.54,0,13.52-6.24,13.52-14.04Z"/>
    <path class="cls-1" d="m981.61,560.18h65l-31.72,182h-65l31.72-182Z"/>
    <path class="cls-1" d="m1064.26,560.18h65l-31.72,182h-65l31.72-182Z"/>
    <path class="cls-3" d="m259.46,809.1l18.2-101.92h66.3l-7.54,43.94c5.46-2.34,11.18-3.38,17.68-3.38,34.32,0,58.76,27.82,58.76,66.3,0,46.8-36.14,78.26-82.42,78.26-49.14,0-79.56-35.36-70.98-83.2Zm86.58,8.84c0-7.02-5.72-12.48-12.74-12.48-7.54,0-13.26,5.98-13.26,13.78,0,7.02,5.46,12.74,12.48,12.74,7.54,0,13.52-6.24,13.52-14.04Z"/>
    <path class="cls-3" d="m497.64,751.38l-13.26,75.14c-1.04,6.24,1.82,10.4,7.02,10.4s9.62-4.16,10.66-10.4l13.26-75.14h65l-13.26,74.62c-7.28,41.34-39.26,66.82-83.2,66.82s-71.5-27.3-64.48-66.82l13.26-74.62h65Z"/>
    <path class="cls-3" d="m566.54,861.1l26.78-21.58c1.56,4.94,5.98,8.84,11.18,8.84s8.84-3.38,8.84-8.06c0-12.74-29.64-17.68-29.64-47.32,0-26.26,23.66-45.24,59.28-45.24,24.44,0,41.86,8.84,53.56,26.78l-23.66,18.98c-2.34-4.42-5.98-6.76-9.88-6.76-4.68,0-8.32,3.38-8.32,7.54,0,13.52,36.14,15.08,36.14,48.36,0,28.6-26.78,49.66-65.26,49.66-27.82,0-48.1-10.92-59.02-31.2Z"/>
    <path class="cls-3" d="m751.47,784.25c-15.85,0-29.51-9.5-35.59-23.1l-22.22,128.03h64.99l20.17-116.17c-7.03,6.94-16.7,11.24-27.35,11.24Z"/>
    <path class="cls-3" d="m867.82,747.74c46.28,0,73.58,27.82,66.56,67.86l-13,73.58h-65l13.26-75.14c1.04-6.24-2.08-10.4-7.28-10.4s-9.36,4.16-10.4,10.4l-13.26,75.14h-65l13.26-74.62c7.54-42.12,37.44-66.82,80.86-66.82Z"/>
    <path class="cls-3" d="m940.55,828.08c0-44.72,37.7-80.34,84.76-80.34,39.78,0,67.86,25.48,67.86,61.62,0,8.32-1.56,17.94-4.16,25.74h-69.16l53.82,27.56c-14.82,18.46-39.78,29.64-65.78,29.64-40.04,0-67.34-26.26-67.34-64.22Zm91.52-20.02c0-7.02-5.72-12.48-12.74-12.48-7.54,0-13.26,5.98-13.26,13.78,0,7.02,5.46,12.74,12.48,12.74,7.54,0,13.52-6.24,13.52-14.04Z"/>
    <path class="cls-3" d="m1085.83,861.1l26.78-21.58c1.56,4.94,5.98,8.84,11.18,8.84s8.84-3.38,8.84-8.06c0-12.74-29.64-17.68-29.64-47.32,0-26.26,23.66-45.24,59.28-45.24,24.44,0,41.86,8.84,53.56,26.78l-23.66,18.98c-2.34-4.42-5.98-6.76-9.88-6.76-4.68,0-8.32,3.38-8.32,7.54,0,13.52,36.14,15.08,36.14,48.36,0,28.6-26.78,49.66-65.26,49.66-27.82,0-48.1-10.92-59.02-31.2Z"/>
    <path class="cls-3" d="m1211.98,861.1l26.78-21.58c1.56,4.94,5.98,8.84,11.18,8.84s8.84-3.38,8.84-8.06c0-12.74-29.64-17.68-29.64-47.32,0-26.26,23.66-45.24,59.28-45.24,24.44,0,41.86,8.84,53.56,26.78l-23.66,18.98c-2.34-4.42-5.98-6.76-9.88-6.76-4.68,0-8.32,3.38-8.32,7.54,0,13.52,36.14,15.08,36.14,48.36,0,28.6-26.78,49.66-65.26,49.66-27.82,0-48.1-10.92-59.02-31.2Z"/>
    <path class="cls-2" d="m442.44,971.96c0-43.16,34.32-77.22,81.64-77.22,42.12,0,72.8,26.78,72.8,67.34,0,43.16-34.32,77.22-81.64,77.22-42.12,0-72.8-26.78-72.8-67.34Zm90.48-7.02c0-7.02-5.72-12.48-12.74-12.48-7.54,0-13.26,5.98-13.26,13.78,0,7.02,5.46,12.74,12.48,12.74,7.54,0,13.52-6.24,13.52-14.04Z"/>
    <path class="cls-2" d="m680.99,898.38l-13.78,77.48c-.78,4.68,2.08,8.06,6.5,8.06,4.68,0,7.28-3.64,8.06-8.06l13.78-77.48h61.36l-13.78,77.48c-.78,4.68,2.08,8.06,6.5,8.06,4.68,0,7.28-3.64,8.06-8.06l13.78-77.48h65l-13.78,78c-7.28,41.08-31.46,63.44-68.64,63.44-24.96,0-41.6-9.88-47.58-27.56-13,19.5-27.3,27.56-49.66,27.56-39.78,0-61.36-24.96-54.6-63.44l13.78-78h65Z"/>
    <path class="cls-2" d="m918.96,894.74c46.28,0,73.58,27.82,66.56,67.86l-13,73.58h-65l13.26-75.14c1.04-6.24-2.08-10.4-7.28-10.4s-9.36,4.16-10.4,10.4l-13.26,75.14h-65l13.26-74.62c7.54-42.12,37.44-66.82,80.86-66.82Z"/>
    <path class="cls-2" d="m991.69,975.08c0-44.72,37.7-80.34,84.76-80.34,39.78,0,67.86,25.48,67.86,61.62,0,8.32-1.56,17.94-4.16,25.74h-69.16l53.82,27.56c-14.82,18.46-39.78,29.64-65.78,29.64-40.04,0-67.34-26.26-67.34-64.22Zm91.52-20.02c0-7.02-5.72-12.48-12.74-12.48-7.54,0-13.26,5.98-13.26,13.78,0,7.02,5.46,12.74,12.48,12.74,7.54,0,13.52-6.24,13.52-14.04Z"/>
    <path class="cls-2" d="m1165.05,898.38h60.84l-2.34,14.04c5.98-10.92,17.42-17.68,31.46-17.68,17.68,0,30.42,12.48,30.42,29.64,0,21.84-15.08,37.7-35.88,37.7-12.74,0-22.88-6.24-27.82-16.12l-15.86,90.22h-65l24.18-137.8Z"/>
  </g>
  <path class="cls-3" d="m784.28,745.3c0,6.97-2.17,13.43-5.88,18.73-5.92,8.52-15.78,14.08-26.94,14.08-15.7,0-28.82-11.01-32.06-25.74-.51-2.28-.77-4.65-.77-7.08,0-6.11,1.67-11.84,4.59-16.75,5.72-9.62,16.23-16.07,28.23-16.07,14.92,0,27.51,9.95,31.49,23.6.86,2.93,1.32,6.03,1.32,9.23Z"/>
</svg>