<?xml version="1.0" encoding="UTF-8"?>
<svg id="Layer_1" data-name="Layer 1" xmlns="http://www.w3.org/2000/svg" viewBox="0 0 1600 1600">
  <defs>
    <style>
      .cls-1 {
        fill: #ffe500;
      }

      .cls-1, .cls-2, .cls-3 {
        stroke-width: 0px;
      }

      .cls-2 {
        fill: #fff;
      }

      .cls-3 {
        fill: #ff4d00;
      }
    </style>
  </defs>
  <path class="cls-3" d="m1407.68,780.67c-9.52-8.67-20.82-15.38-33.59-19.96-12.73-4.56-26.63-6.87-41.31-6.87-21.35,0-40.54,4.9-56.61,14.31,1.43-2.75,2.25-5.87,2.25-9.19v-19.5c19.95-12.03,31.11-33.11,31.11-59.72v-39.78c0-11.05-8.95-20-20-20h-49.64c-2.2,0-4.31.35-6.29,1.01-1.98-.65-4.09-1.01-6.29-1.01h-49.64c-7.19,0-13.48,3.81-17.01,9.51-12.14-7.57-27.24-11.55-44.02-11.55-20.97,0-114.02,2.04-159.63,2.04h-57.8c-2.18,0-4.28.36-6.25,1.01-1.97-.65-4.06-1.01-6.25-1.01h-87.72c-2.07,0-4.07.32-5.95.9-1.88-.58-3.88-.9-5.95-.9h-49.64c-2.29,0-4.49.39-6.54,1.1-2.05-.71-4.25-1.1-6.55-1.1h-49.64c-8.39,0-15.57,5.18-18.54,12.51-12.96-9.33-29.05-14.55-46.93-14.55-22.66,0-43.45,8.26-58.56,23.25-1.69,1.68-3.28,3.43-4.8,5.25-2.2-2.92-4.64-5.67-7.31-8.21-13.73-13.08-32.98-20.29-54.19-20.29s-40.46,7.2-54.19,20.29c-2.52,2.4-4.82,4.98-6.93,7.71-3.49-5.05-7.9-9.6-13.18-13.51-12.8-9.48-29.52-14.49-48.37-14.49-20.97,0-39.05,6.32-52.28,18.27-13.61,12.3-21.1,30.06-21.1,50.01v69.3c-6.66-1.09-13.55-1.65-20.63-1.65-14.85,0-28.88,2.41-41.71,7.17-12.91,4.79-24.31,11.83-33.87,20.94-19.32,18.4-29.96,44.52-29.96,73.53v103.48c0,11.05,8.95,20,20,20h75.92c3.49,0,6.77-.89,9.62-2.46,2.85,1.57,6.13,2.46,9.62,2.46h75.92c3.35,0,6.51-.83,9.28-2.29,2.78,1.46,5.93,2.29,9.28,2.29h126.88c1.89,0,3.7-.28,5.43-.77,1.73.49,3.55.77,5.43.77h252.09c3.49,0,6.77-.89,9.62-2.46,2.85,1.57,6.13,2.46,9.62,2.46h75.92c11.05,0,20-8.95,20-20v-12.82c1.08,1.17,2.19,2.33,3.32,3.46,21.11,20.95,50.27,32.49,82.11,32.49,26.28,0,50.08-7.89,68.81-22.82,3.19-2.54,6.21-5.3,9.07-8.21v7.91c0,11.05,8.95,20,20,20h75.92c3.49,0,6.77-.89,9.62-2.46,2.85,1.57,6.13,2.46,9.62,2.46h75.92c3.21,0,6.23-.77,8.92-2.12,2.69,1.34,5.71,2.12,8.92,2.12h75.92c11.05,0,20-8.95,20-20v-19.32c1.22.04,2.44.06,3.66.06,25.06,0,47.79-8.91,64.01-25.08,16.22-16.17,25.15-38.84,25.15-63.82,0-27.53-10.7-52.44-30.13-70.13Z"/>
  <g>
    <path class="cls-1" d="m361.74,637.92c29.24,0,51,15.3,51,38.59,0,10.03-3.91,18.36-10.37,22.1,12.41,3.91,19.38,13.6,19.38,27.71,0,20.4-14.62,32.64-39.27,32.64h-74.12v-72.76c0-29.41,20.91-48.28,53.38-48.28Zm10.54,82.96c0-5.61-4.42-9.86-10.03-9.86s-10.03,4.25-10.03,9.86,4.42,9.86,10.03,9.86,10.03-4.25,10.03-9.86Zm-1.53-40.12c0-5.27-3.91-9.01-9.18-9.01s-9.18,3.74-9.18,9.01,3.91,9.01,9.18,9.01,9.18-3.74,9.18-9.01Z"/>
    <path class="cls-1" d="m484.41,637.92c33.15,0,55.93,21.59,55.93,53.38v67.66h-49.64v-30.77h-12.58v30.77h-49.64v-67.66c0-31.79,22.78-53.38,55.93-53.38Zm10.37,50.49c0-6.12-4.42-10.54-10.37-10.54s-10.37,4.42-10.37,10.54,4.42,10.54,10.37,10.54,10.37-4.42,10.37-10.54Z"/>
    <path class="cls-1" d="m547.23,699.46c0-35.53,26.18-61.54,62.05-61.54,29.24,0,51.34,17.68,57.63,46.07l-47.94,9.69c-2.04-4.08-5.61-6.46-9.69-6.46-5.95,0-10.37,4.42-10.37,10.54s4.42,10.54,10.37,10.54c4.93,0,8.5-3.4,9.86-7.65l47.26,14.79c-6.8,28.56-28.22,45.56-57.12,45.56-35.87,0-62.05-26.01-62.05-61.54Z"/>
    <path class="cls-1" d="m724.38,715.95v43.01h-49.64v-119h49.64v39.1c8.84-2.89,13.09-11.73,13.09-26.86v-12.24h49.64v12.24c0,22.1-7.48,35.87-25.16,45.22,17.34,9.35,25.67,23.97,25.67,45.05v16.49h-49.64v-16.49c0-15.13-4.59-23.97-13.6-26.52Z"/>
    <path class="cls-1" d="m799.01,639.96h87.72v35.02h-38.08v10.54h28.56v27.54h-28.56v10.88h38.08v35.02h-87.72v-119Z"/>
    <path class="cls-1" d="m899.22,639.96h57.8c34.68,0,60.01,25.16,60.01,59.5s-25.33,59.5-60.01,59.5h-57.8v-119Zm67.15,57.8c0-6.12-4.42-10.54-10.37-10.54s-10.37,4.42-10.37,10.54,4.42,10.54,10.37,10.54,10.37-4.42,10.37-10.54Z"/>
    <path class="cls-1" d="m1116.65,637.92c29.24,0,51,15.3,51,38.59,0,10.03-3.91,18.36-10.37,22.1,12.41,3.91,19.38,13.6,19.38,27.71,0,20.4-14.62,32.64-39.27,32.64h-74.12v-72.76c0-29.41,20.91-48.28,53.38-48.28Zm10.54,82.96c0-5.61-4.42-9.86-10.03-9.86s-10.03,4.25-10.03,9.86,4.42,9.86,10.03,9.86,10.03-4.25,10.03-9.86Zm-1.53-40.12c0-5.27-3.91-9.01-9.18-9.01s-9.18,3.74-9.18,9.01,3.91,9.01,9.18,9.01,9.18-3.74,9.18-9.01Z"/>
    <path class="cls-1" d="m1208.79,726.83c-20.06-6.97-31.11-23.12-31.11-47.09v-39.78h49.64v44.37c0,4.76,2.55,7.82,6.29,7.82s6.29-3.06,6.29-7.82v-44.37h49.64v39.78c0,23.97-11.05,40.12-31.11,47.09v32.13h-49.64v-32.13Z"/>
    <path class="cls-2" d="m267.73,773.84c50.7,0,85.54,33.02,85.54,81.64v103.48h-75.92v-47.06h-19.24v47.06h-75.92v-103.48c0-48.62,34.84-81.64,85.54-81.64Zm15.86,77.22c0-9.36-6.76-16.12-15.86-16.12s-15.86,6.76-15.86,16.12,6.76,16.12,15.86,16.12,15.86-6.76,15.86-16.12Z"/>
    <path class="cls-2" d="m371.84,776.96h75.92v112.06h50.96v69.94h-126.88v-182Z"/>
    <path class="cls-2" d="m593.3,773.84c50.44,0,85.02,31.98,85.02,76.96,0,40.56-28.34,68.9-69.16,68.9-7.8,0-15.34-1.04-23.66-3.12v42.38h-75.92v-102.96c0-49.4,33.02-82.16,83.72-82.16Zm17.16,76.44c0-9.36-6.76-16.12-15.86-16.12s-15.86,6.76-15.86,16.12,6.76,16.12,15.86,16.12,15.86-6.76,15.86-16.12Z"/>
    <path class="cls-2" d="m771.3,773.84c50.7,0,85.54,33.02,85.54,81.64v103.48h-75.92v-47.06h-19.24v47.06h-75.92v-103.48c0-48.62,34.84-81.64,85.54-81.64Zm15.86,77.22c0-9.36-6.76-16.12-15.86-16.12s-15.86,6.76-15.86,16.12,6.76,16.12,15.86,16.12,15.86-6.76,15.86-16.12Z"/>
    <path class="cls-2" d="m867.37,867.96c0-54.34,40.04-94.12,94.9-94.12,44.72,0,78.52,27.04,88.14,70.46l-73.32,14.82c-3.12-6.24-8.58-9.88-14.82-9.88-9.1,0-15.86,6.76-15.86,16.12s6.76,16.12,15.86,16.12c7.54,0,13-5.2,15.08-11.7l72.28,22.62c-10.4,43.68-43.16,69.68-87.36,69.68-54.86,0-94.9-39.78-94.9-94.12Z"/>
    <path class="cls-2" d="m1145.69,773.84c50.7,0,85.54,33.02,85.54,81.64v103.48h-75.92v-47.06h-19.24v47.06h-75.92v-103.48c0-48.62,34.84-81.64,85.54-81.64Zm15.86,77.22c0-9.36-6.76-16.12-15.86-16.12s-15.86,6.76-15.86,16.12,6.76,16.12,15.86,16.12,15.86-6.76,15.86-16.12Z"/>
    <path class="cls-2" d="m1332.79,773.84c50.44,0,85.02,31.98,85.02,76.96,0,40.56-28.34,68.9-69.16,68.9-7.8,0-15.34-1.04-23.66-3.12v42.38h-75.92v-102.96c0-49.4,33.02-82.16,83.72-82.16Zm17.16,76.44c0-9.36-6.76-16.12-15.86-16.12s-15.86,6.76-15.86,16.12,6.76,16.12,15.86,16.12,15.86-6.76,15.86-16.12Z"/>
  </g>
</svg>